<svg xmlns="http://www.w3.org/2000/svg" viewBox="0 0 283.5 283.5"><path fill="none" d="M0 0h283.5v283.5H0z"/><path fill="#737f86" d="M148.1 153.9V52.2c-.2-16.9-14-30.6-31-30.6s-30.7 13.6-31 30.6v101.7c-16.6 10.4-27.7 28.8-27.7 49.8 0 32.4 26.2 58.6 58.6 58.6s58.6-26.2 58.6-58.6c.2-21-10.9-39.4-27.5-49.8zm-31 100.2c-27.9 0-50.4-22.6-50.4-50.4 0-19.2 10.8-36 26.6-44.5V51.9c.4-12.8 10.9-23.1 23.8-23.1s23.4 10.3 23.8 23.1v107.3c15.8 8.5 26.6 25.2 26.6 44.5.1 27.8-22.5 50.4-50.4 50.4zM215.1 129.7h-31.7c-2.9 0-5.3-2.4-5.3-5.3v-.3c0-2.9 2.4-5.3 5.3-5.3h31.7c2.9 0 5.3 2.4 5.3 5.3v.3c.1 2.9-2.3 5.3-5.3 5.3z"/><path fill="#737f86" d="M113.5 71h-21c-2.3 0-4.3-1.9-4.3-4.3v-2.4c0-2.3 1.9-4.3 4.3-4.3h21c2.3 0 4.3 1.9 4.3 4.3v2.4c-.1 2.4-2 4.3-4.3 4.3zM113.5 90.3h-21c-2.3 0-4.3-1.9-4.3-4.3v-2.4c0-2.3 1.9-4.3 4.3-4.3h21c2.3 0 4.3 1.9 4.3 4.3V86c-.1 2.4-2 4.3-4.3 4.3zM113.5 109.7h-21c-2.3 0-4.3-1.9-4.3-4.3V103c0-2.3 1.9-4.3 4.3-4.3h21c2.3 0 4.3 1.9 4.3 4.3v2.4c-.1 2.3-2 4.3-4.3 4.3zM113.5 129h-21c-2.3 0-4.3-1.9-4.3-4.3v-2.4c0-2.3 1.9-4.3 4.3-4.3h21c2.3 0 4.3 1.9 4.3 4.3v2.4c-.1 2.4-2 4.3-4.3 4.3zM215.1 67.9h-31.7c-2.9 0-5.3-2.4-5.3-5.3v-.3c0-2.9 2.4-5.3 5.3-5.3h31.7c2.9 0 5.3 2.4 5.3 5.3v.3c.1 2.9-2.3 5.3-5.3 5.3z"/><path fill="#737f86" d="M193.9 78.3V46.6c0-2.9 2.4-5.3 5.3-5.3h.3c2.9 0 5.3 2.4 5.3 5.3v31.7c0 2.9-2.4 5.3-5.3 5.3h-.3c-2.9 0-5.3-2.4-5.3-5.3z"/><path fill="#007cc1" d="M128.9 187h-23.5c-1.6 0-2.8-1.3-2.8-2.8v-44c0-1.6 1.3-2.8 2.8-2.8h23.5c1.6 0 2.8 1.3 2.8 2.8v44c0 1.6-1.3 2.8-2.8 2.8z"/><circle cx="117.1" cy="203.7" r="38.7" fill="#007cc1"/></svg>